<svg id="Group_312" data-name="Group 312" xmlns="http://www.w3.org/2000/svg" xmlns:xlink="http://www.w3.org/1999/xlink" width="219.323" height="219.301" viewBox="0 0 219.323 219.301">
  <defs>
    <clipPath id="clip-path">
      <rect id="Rectangle_191" data-name="Rectangle 191" width="219.323" height="219.301" fill="none"/>
    </clipPath>
  </defs>
  <g id="Group_311" data-name="Group 311" clip-path="url(#clip-path)">
    <path id="Path_105" data-name="Path 105" d="M219.323,109.65A109.661,109.661,0,1,1,109.684,0,109.635,109.635,0,0,1,219.323,109.65" transform="translate(0 0)" fill="#fff"/>
    <path id="Path_106" data-name="Path 106" d="M115.58,93.934c-2.1-5.638,5.162-15.192,19.571-22.691,1.586-.843,4.13-.678,4.752-2.257,1.7-4.52.115-8.056-3.442-9.158-5.143-1.595-13.53,4.235-18.917,13.577A33.564,33.564,0,0,0,113.6,83.852a15.138,15.138,0,0,0,2.877,11.7,7.352,7.352,0,0,1-.9-1.622" transform="translate(-25.536 -13.415)" fill="#0069b7"/>
    <path id="Path_107" data-name="Path 107" d="M187.931,100.652c.112,6.33-15.572,11.506-35.014,11.575-19.429.087-35.257-4.981-35.363-11.336-.083-6.292,15.6-11.48,34.989-11.574,19.463-.075,35.283,4.987,35.388,11.335" transform="translate(-26.474 -20.114)" fill="#ffd000"/>
    <path id="Path_108" data-name="Path 108" d="M168.269,67.581c-3.623-4.794-18.207-2.575-32.585,4.9-14.411,7.5-21.663,17.053-19.574,22.691a11.88,11.88,0,0,0,3.063,4.023,5.33,5.33,0,0,1-2.02-3.766c-.087-6.292,15.591-11.518,34.988-11.574,2.053-.012,4.061.041,6.037.139,8.5-6.218,12.822-12.779,10.091-16.41" transform="translate(-26.069 -14.649)" fill="#69a119"/>
    <path id="Path_109" data-name="Path 109" d="M201.773,132.6c-.528,2.52-1.681,2.917-4.177,2.907l-5.014-.019-.033,8.772c-.026,6.7,1.649,9.192,8.323,9.205a9.778,9.778,0,0,0,2.931-.4l-1.7,7.495a10.776,10.776,0,0,1-4.6.818c-8.765-.033-14.6-4.662-14.558-14.633l.122-32.152,9.606-1.639-.053,13.778,10.443.04Zm-20.839-5.909-1.278,5.825c-.436,2.3-1.47,2.917-4.2,2.907l-.81,0c-4.2-.016-6.718,2.919-6.74,8.747l-.04,16.291-9.591-.036.108-33.4,9.588-1.621-.022,7.5c1.275-4.154,4.2-6.241,8.809-6.224Zm-50.981,16.313c7.1-1.037,12.625-4.254,14.228-8.925a11.8,11.8,0,0,0-5.41-1.279c-5.045-.019-8.8,3.285-8.813,9.14Zm21.686,7.8-2.144,8.318a24.979,24.979,0,0,1-10.017,2.035c-13.346-.023-19.581-7.551-19.541-17.985.043-11.268,7.964-17.916,19.263-17.873a30.493,30.493,0,0,1,14.6,3.786c-.889,12.631-10.392,18.029-22.4,19.87,1.652,2.922,4.7,4.275,8.935,4.291a27.722,27.722,0,0,0,11.309-2.441M92.417,134.628l-.066,17.408a10.5,10.5,0,0,0,5,1.088c5.421.02,9.186-3.32,9.213-10.419.022-5.846-2.453-9.586-8.322-9.608a10.335,10.335,0,0,0-5.83,1.531m-9.683,23.448.155-45.5,9.606,1.675-.049,12.969a15.361,15.361,0,0,1,7.916-2.055c10.452.04,16.258,6.287,16.219,16.736-.013,11.692-7.121,19.17-19.663,19.148a41.222,41.222,0,0,1-14.183-2.978m-16.721,2.037.181-47.6,9.569,1.675-.137,45.958ZM49.4,143.755l-6.69,1.639c-2.607.624-5.026,1.452-5.038,4.374-.009,2.518,2.07,3.965,5.834,3.979a16.125,16.125,0,0,0,5.859-1.028Zm-5.92,17.094c-10-.038-15.029-3.8-14.968-10.916-.014-5.527,4.169-8.431,10.032-9.538l6.249-1.239c2.21-.517,4.609-.83,4.619-3.339.008-2.059-1.646-3.349-5.824-3.353-3.35-.012-8.368,1.24-13.384,3.28l1.715-8.332a38.053,38.053,0,0,1,13.361-2.467Q59.035,125,59.007,135.02l-.088,22.965c-3.736,1.643-10.829,2.883-15.435,2.865" transform="translate(-6.422 -25.339)" fill="#0069b7"/>
    <path id="Path_110" data-name="Path 110" d="M47.267,198.294a2.152,2.152,0,0,0-2.049-1.282,1.863,1.863,0,0,0-1.959,1.835,1.5,1.5,0,0,0,.748,1.282,10.41,10.41,0,0,0,2.049,1c1.924.838,2.689,1.782,2.689,3.278a3.665,3.665,0,0,1-3.777,3.653,3.6,3.6,0,0,1-3.652-3.065l1.284-.356a2.986,2.986,0,0,0,.48,1.211,2.366,2.366,0,0,0,1.942.962,2.342,2.342,0,0,0,2.387-2.334,1.879,1.879,0,0,0-.98-1.692,12.741,12.741,0,0,0-2.1-1.034c-1.711-.766-2.4-1.622-2.4-2.923a3.132,3.132,0,0,1,3.331-3.064,3.365,3.365,0,0,1,3.064,1.853Z" transform="translate(-9.305 -44.087)" fill="#0069b7"/>
    <path id="Path_111" data-name="Path 111" d="M56.355,207.9H55.018V197.247H52.15v-1.23h7.091v1.23H56.355Z" transform="translate(-11.744 -44.144)" fill="#0069b7"/>
    <path id="Path_112" data-name="Path 112" d="M74.013,201.911a6.19,6.19,0,0,1-6.236,6.146,6.338,6.338,0,0,1-4.6-2.084,6.084,6.084,0,0,1-1.533-4.134,6.183,6.183,0,0,1,12.365.071m-11.028-.071a4.784,4.784,0,0,0,1.515,3.617,4.9,4.9,0,1,0-1.515-3.617" transform="translate(-13.883 -44.087)" fill="#0069b7"/>
    <path id="Path_113" data-name="Path 113" d="M81.724,205.621c0,1.461-.214,2.191-.838,2.8a2.579,2.579,0,0,1-1.782.713,3.22,3.22,0,0,1-2.138-.873l.731-1.034a1.878,1.878,0,0,0,1.371.659c.927,0,1.319-.695,1.319-2.262v-9.6h1.337Z" transform="translate(-17.333 -44.144)" fill="#0069b7"/>
    <path id="Path_114" data-name="Path 114" d="M87.415,193.959l-.766-.517,1.71-2.369,1.194.8Zm.766,12.828H86.844V194.9h1.337Z" transform="translate(-19.514 -43.031)" fill="#0069b7"/>
    <path id="Path_115" data-name="Path 115" d="M105.354,206.671v1.23H96.839l6.466-10.654h-5.63v-1.23h7.839L99.03,206.671Z" transform="translate(-21.809 -44.144)" fill="#0069b7"/>
    <path id="Path_116" data-name="Path 116" d="M112.057,204.369l-1.425,3.366h-1.443l5.469-12.453L120,207.735h-1.461l-1.407-3.366Zm2.584-5.987-2.032,4.757h4.009Z" transform="translate(-24.59 -43.979)" fill="#0069b7"/>
    <path id="Path_117" data-name="Path 117" d="M133.5,207.9H132.16V197.247h-2.868v-1.23h7.091v1.23H133.5Z" transform="translate(-29.117 -44.144)" fill="#0069b7"/>
    <path id="Path_118" data-name="Path 118" d="M151.155,201.911a6.19,6.19,0,0,1-6.236,6.146,6.338,6.338,0,0,1-4.6-2.084,6.08,6.08,0,0,1-1.533-4.134,6.183,6.183,0,0,1,12.365.071m-11.028-.071a4.786,4.786,0,0,0,1.514,3.617,4.9,4.9,0,1,0-1.514-3.617" transform="translate(-31.256 -44.087)" fill="#0069b7"/>
    <path id="Path_119" data-name="Path 119" d="M165.237,205.621c0,1.461-.214,2.191-.838,2.8a2.578,2.578,0,0,1-1.781.713,3.222,3.222,0,0,1-2.138-.873l.731-1.034a1.878,1.878,0,0,0,1.372.659c.927,0,1.318-.695,1.318-2.262v-9.6h1.337Z" transform="translate(-36.141 -44.144)" fill="#0069b7"/>
    <path id="Path_120" data-name="Path 120" d="M170.928,193.959l-.766-.517,1.71-2.369,1.194.8Zm.766,12.828h-1.337V194.9h1.337Z" transform="translate(-38.322 -43.031)" fill="#0069b7"/>
    <path id="Path_121" data-name="Path 121" d="M181.034,198.294a2.15,2.15,0,0,0-2.049-1.282,1.863,1.863,0,0,0-1.959,1.835,1.5,1.5,0,0,0,.748,1.282,10.41,10.41,0,0,0,2.049,1c1.924.838,2.69,1.782,2.69,3.278a3.665,3.665,0,0,1-3.777,3.653,3.6,3.6,0,0,1-3.652-3.065l1.283-.356a2.986,2.986,0,0,0,.481,1.211,2.406,2.406,0,0,0,4.33-1.372,1.878,1.878,0,0,0-.981-1.692,12.743,12.743,0,0,0-2.1-1.034c-1.711-.766-2.4-1.622-2.4-2.923a3.132,3.132,0,0,1,3.331-3.064,3.365,3.365,0,0,1,3.064,1.853Z" transform="translate(-39.43 -44.087)" fill="#0069b7"/>
    <path id="Path_122" data-name="Path 122" d="M190.121,207.9h-1.337V197.247h-2.868v-1.23h7.091v1.23h-2.886Z" transform="translate(-41.869 -44.144)" fill="#0069b7"/>
    <path id="Path_123" data-name="Path 123" d="M204.365,206.671h3.26v1.23h-4.6V196.017h1.337Z" transform="translate(-45.723 -44.144)" fill="#0069b7"/>
    <path id="Path_124" data-name="Path 124" d="M212.415,196.133v3.545H217.1v1.23h-4.687v4.65h4.81v1.23h-6.146V194.9h6.146v1.23Zm1.443-2.174-.765-.569,2.12-2.317,1.193.8Z" transform="translate(-47.536 -43.031)" fill="#0069b7"/>
    <path id="Path_125" data-name="Path 125" d="M223.316,207.9H221.98V196.017h2.155a4.153,4.153,0,0,1,2.994.838,3.277,3.277,0,0,1,1.1,2.495c0,2.084-1.425,3.349-3.759,3.349h-1.158Zm1.07-6.414c1.62,0,2.547-.784,2.547-2.138a2,2,0,0,0-.658-1.568,2.861,2.861,0,0,0-1.979-.535h-.98v4.24Z" transform="translate(-49.991 -44.144)" fill="#0069b7"/>
    <path id="Path_126" data-name="Path 126" d="M233.62,197.247v3.545h4.686v1.23H233.62v4.65h4.81v1.23h-6.146V196.017h6.146v1.23Z" transform="translate(-52.312 -44.144)" fill="#0069b7"/>
  </g>
</svg>
