<svg xmlns="http://www.w3.org/2000/svg" width="268.419" height="78.591" viewBox="0 0 268.419 78.591">
  <path id="Path_4" data-name="Path 4" d="M252.71,513.959c-.508-.1-1.02-.147-1.524-.25a10.519,10.519,0,0,1-1.026-.289c-.128-.039-.245-.115-.373-.156-.8-.245-1.6-.463-2.392-.736a28.812,28.812,0,0,1-4.338-1.939,7.809,7.809,0,0,1-1.778-1.139,22.449,22.449,0,0,0-2.06-1.82,4.985,4.985,0,0,1-.632-.637,22.634,22.634,0,0,0-3.847-3.753,2.881,2.881,0,0,1-.293-.275,5.614,5.614,0,0,1,.3-.614c.291-.474.607-.932.9-1.4q1.163-1.852,2.319-3.714c.208-.335.39-.69.6-1.027.458-.752.951-1.483,1.379-2.255.617-1.118,1.173-2.275,1.781-3.4.674-1.249,1.375-2.481,2.069-3.717a5.443,5.443,0,0,0,.465-.774,20.735,20.735,0,0,1,2.5-4.248c.635-1,1.258-2,1.9-3,.449-.7.9-1.4,1.372-2.083.445-.649.955-1.255,1.359-1.931a32.118,32.118,0,0,1,1.961-3.2q1.2-1.565,2.465-3.082a10.264,10.264,0,0,1,1.24-1.288,16.984,16.984,0,0,1,2.5-1.774,5.348,5.348,0,0,1,2.12-.857,1.132,1.132,0,0,0,1.01-.481,1.249,1.249,0,0,0-1.168-.694c-.561.046-1.125.034-1.687.076-.9.067-1.789.2-2.685.231a11.535,11.535,0,0,0-2.55.241,10.146,10.146,0,0,1-1.679.188c-1.018.089-2.039.165-3.055.254-.651.055-1.3.11-1.95.186-.761.09-1.521.2-2.278.312-.578.087-1.15.257-1.73.286a25.721,25.721,0,0,0-4.053.74c-1.519.325-3.041.639-4.562.955a2.66,2.66,0,0,0-.593.128.461.461,0,0,0-.247.342.484.484,0,0,0,.287.325.848.848,0,0,0,.531-.012,3.2,3.2,0,0,1,1.994-.124,1.781,1.781,0,0,0,.536-.03,12.816,12.816,0,0,1,3.435.114c.83.165,1.244.539,1.008,1.693a9.037,9.037,0,0,1-1.01,2.681c-.976,1.725-1.883,3.49-2.834,5.231-.525.96-1.045,1.927-1.643,2.837-.305.468-.376,1.084-.882,1.412.238.27.822-.007.777.63-.215.078-.419.151-.616.225a1.372,1.372,0,0,1-.071.444c-.057.1-.2.135-.309.2a1.283,1.283,0,0,1-.144-.282,4.414,4.414,0,0,1-.05-.541c-.247.383-.431.625-.568.891-.477.928-1.318,1.615-1.618,2.658a5.2,5.2,0,0,0-1.341,1.82c-.211.357-.541.7-.089,1.215-.623-.012-.825.387-1.066.759q-2.145,3.3-4.312,6.592c-.181.279-.4.527-.609.79l-.131-.066c0-.229,0-.458,0-.687-.009-3.254.043-6.5.259-9.752.153-2.3.128-4.619.206-6.927a2.856,2.856,0,0,1,.232-1.079,6.8,6.8,0,0,1,1.16-1.966,2.562,2.562,0,0,0,.342-.6c.181-.342.367-.685.536-1.034a1.119,1.119,0,0,0,.186-.554c-.039-.275-.307-.319-.539-.314-.562.011-1.125.014-1.686.067-.806.075-1.609.181-2.413.288-1.538.2-3.08.406-4.617.628-.52.075-.7.266-.688.6.016.312.2.449.672.543.172.034.4.057.5.177a4.441,4.441,0,0,1,1.3,2.179,17.131,17.131,0,0,1,.456,3.194,5.315,5.315,0,0,1,.332,2.335c.094,2.827.161,5.655.25,8.482.1,3.015.211,6.029.3,9.044.091,2.969.158,5.939.245,8.909a5.052,5.052,0,0,1-.4,2.062c-.367.91-.729,1.822-1.1,2.734a.589.589,0,0,1-.142.234c-.6.484-1.031,1.2-1.845,1.377a.492.492,0,0,0-.4.564.506.506,0,0,0,.483.5,5.472,5.472,0,0,0,2.344-.048,16.08,16.08,0,0,1,3.73-.589c1.432-.051,2.857-.335,4.283-.527a.472.472,0,0,0,.476-.495c0-.311-.114-.575-.44-.616a8.262,8.262,0,0,1-2.191-.672,1.2,1.2,0,0,1-.736-.736A12.7,12.7,0,0,1,226,509.64q-.051-3.463-.121-6.929c-.011-.447-.092-.891-.108-1.338-.018-.58-.005-1.16-.005-1.9.79.632,1.483,1.148,2.135,1.719.88.77,1.728,1.579,2.589,2.372.169.156.328.323.49.486.593.6,1.178,1.21,1.78,1.8.522.515,1.061,1.01,1.59,1.517s1.033,1.05,1.593,1.515a12.958,12.958,0,0,1,1.994,1.78,11.884,11.884,0,0,1,1.522,2.635c-.506.3-.964.593-1.435.854-.318.177-.662.3-.981.472a.535.535,0,0,0-.321.632,1.239,1.239,0,0,0,.445.472.662.662,0,0,0,.327.067c.559.05,1.12.135,1.679.135,1.982,0,3.964,0,5.944-.043,1.26-.028,2.518-.126,3.778-.193a8.011,8.011,0,0,0,.944-.06c1.065-.17,2.129-.35,3.189-.552a2.586,2.586,0,0,0,.747-.318.36.36,0,0,0,.172-.531c-.413-.094-.823-.2-1.238-.277m-1.57-46.774a.257.257,0,0,1-.018.241c-.206.225-.381.161-.541-.1.161-.227.328-.351.559-.14m-23.062,27.8c-.261-.131-.22-.371-.092-.694l.587.454c-.114.277-.3.337-.5.24m8.957-12.055a2.688,2.688,0,0,1,.531.243c-.2.142-.332.291-.39.266a1.449,1.449,0,0,1-.355-.318c.071-.067.158-.2.215-.192m-2.857,5.1c.018.082.037.163.055.247a3.108,3.108,0,0,1-.362.05.452.452,0,0,1-.039-.174,3.509,3.509,0,0,1,.346-.122m-2.39,2.474c.447-.1.447-.1.71.373-.342.073-.525-.11-.71-.373m.529-1.721c-.142-.19-.286-.293-.287-.4a2.2,2.2,0,0,1,.121-.676.288.288,0,0,1,.247-.153.318.318,0,0,1,.167.248c-.048.286-.138.562-.247.976m.862,13.29-.582-.492a1.014,1.014,0,0,1,.062-.245c.664-1.09,1.322-2.179,2-3.258.827-1.315,1.643-2.64,2.509-3.927.761-1.13,1.593-2.207,2.378-3.322.6-.853,1.182-1.719,1.757-2.591a24.768,24.768,0,0,0,1.592-2.521,58.205,58.205,0,0,1,3.414-5.494c.451-.7.871-1.421,1.313-2.129a.718.718,0,0,1,.376-.307c-.325.632-.648,1.26-.976,1.89q-.367.708-.742,1.418a3.4,3.4,0,0,1-.172.3c-.575.894-1.164,1.78-1.73,2.683-.676,1.081-1.331,2.175-2,3.263a.773.773,0,0,0-.1.181,10.4,10.4,0,0,1-1.421,2.621c-.421.694-.9,1.35-1.347,2.023-.745,1.113-1.448,2.259-2.25,3.325a25.639,25.639,0,0,0-2.037,3.231,7.7,7.7,0,0,0-.486,1,11.2,11.2,0,0,1-1.554,2.344m12.172,12.868c-.032.009-.144-.131-.13-.17a.3.3,0,0,1,.181-.17c.053-.012.128.069.254.147a1.324,1.324,0,0,1-.305.193m168.073-48.969a19.419,19.419,0,0,0-2.181-4.109,13.341,13.341,0,0,0-3.535-3.627,7.858,7.858,0,0,0-.948-.706c-.3-.147-.6-.295-.912-.424-.358-.149-.727-.277-1.191-.452-.066-.266-.374-.378-.726-.433a2.88,2.88,0,0,1-.594-.122.75.75,0,0,0-1.088.36c-.037.075-.138.167-.206.163-.376-.016-.543.3-.779.5a1.349,1.349,0,0,1-.232.114l-.353-.4c.225-.394.775-.417.706-1a1.92,1.92,0,0,0-.426-.122,12.374,12.374,0,0,0-4.97.8,14.936,14.936,0,0,0-3.155,1.577c-.658.442-1.375.795-2.012,1.265a11.3,11.3,0,0,0-3.32,3.563c-.114.2-.273.376-.39.577-.355.6-.727,1.185-1.04,1.806a16.124,16.124,0,0,0-.932,2.106c-.36,1.082-.754,2.152-1.139,3.228a5.824,5.824,0,0,0-.174.958c-.2,0-.4-.064-.475.012a1.44,1.44,0,0,0-.385.642c-.106.522.415.311.635.477-.2,1.075-.4,2.124-.6,3.182-.231-.076-.387-.412-.614-.108-.185.245-.037.5.39.754-.023,1.87-.133,3.662-.048,5.446a31.393,31.393,0,0,0,1.315,6.627,10.052,10.052,0,0,0,.983,2.31,22.707,22.707,0,0,0,1.73,2.591c.74.972,1.553,1.886,2.342,2.816a7.682,7.682,0,0,0,3.064,2.124,7.842,7.842,0,0,0,.985.216c.894.231,1.776.543,2.681.694a8.219,8.219,0,0,0,2.218.057,20.114,20.114,0,0,0,5.454-1.542,8.578,8.578,0,0,0,2.631-1.214c.845-.736,1.81-1.327,2.61-2.108a4.9,4.9,0,0,0,1.485-1.89c.027-.083.115-.14.176-.211a17.628,17.628,0,0,0,3.178-4.688,14.043,14.043,0,0,0,1.036-3.125c.2-1.324.435-2.646.577-3.976.133-1.26.13-2.537.254-3.8a17.9,17.9,0,0,0-.461-5.957,43.674,43.674,0,0,0-1.565-4.958m-5.075-5.24c.027.059.085.161.075.17a2.781,2.781,0,0,1-.293.183l-.106-.179c.108-.06.216-.117.325-.174m-4.028-1.515a.305.305,0,0,1,.259-.14c.305.085.272.295.137.552-.225-.06-.479-.067-.4-.412m-1.3-1.3c.192.33.231.564-.059.646-.071.019-.176-.092-.266-.146l.325-.5m-.312-.589c-.366.009-.366.009-.4-.449l.4.449m-.893.245c-.064.112-.13.225-.248.436-.1-.181-.243-.332-.215-.413.087-.234.264-.188.463-.023m-2.94.713c.151-.158.389-.419.346-.547-.172-.5.183-.607.449-.786.167-.11.355-.186.632-.332a2.964,2.964,0,0,1,.25.8.735.735,0,0,0,.5.8,1.765,1.765,0,0,1-.289.449c-.153.114-.454.273-.511.216-.422-.426-.713-.117-1.07.106s-.508.092-.754-.433a1.84,1.84,0,0,0,.445-.27m2.206,2.433c-.13.1-.209.209-.293.213-.066,0-.135-.128-.2-.2.071-.069.137-.19.211-.2s.16.1.286.181m-3.119.594c.053.13.119.215.1.273s-.112.106-.172.158c-.046-.064-.135-.135-.13-.193s.1-.124.2-.238m-1.357-3.4a1.418,1.418,0,0,0,.2-.71.618.618,0,0,1,.341-.445c.1-.041.286.163.508.3-.234.176-.371.279-.543.406.394.749.291.939-.587,1.036a1.774,1.774,0,0,1,.078-.591m-2.9,1.473c.277.6.277.6-.121.878.05-.357.082-.594.121-.878m-5.689,12.949a16.834,16.834,0,0,1,2.291-1.464c1.159-.562,2.376-.992,3.57-1.473a23,23,0,0,1,2.151-.838,18.371,18.371,0,0,1,2.637-.573,14.894,14.894,0,0,1,5.167.248c1.565.332,3.155.532,4.711.9a5.412,5.412,0,0,1,3.371,2.163,1.344,1.344,0,0,1,.094.22c-.509-.36-.971-.68-1.427-1.01a5.19,5.19,0,0,0-1.95-.756c-.987-.229-1.968-.49-2.963-.671a11.16,11.16,0,0,0-2.207-.211,33.045,33.045,0,0,0-7.156.94c-.765.185-1.51.458-2.269.674-.412.117-.841.172-1.247.309a9.737,9.737,0,0,0-4.246,2.757c-.641.715-1.29,1.425-1.952,2.154l-.38-.862a8.833,8.833,0,0,1,1.806-2.505m-2.383,3.749.509.373c-.381.72-.745,1.407-1.107,2.094a3.449,3.449,0,0,1,.6-2.466m8.631,20.3c-.057.012-.229-.179-.22-.259.018-.128.144-.241.224-.36l.4.31c-.181.149-.279.28-.4.309m1.3,1.5c-.08-.1-.13-.169-.179-.236.078-.059.154-.119.232-.177.037.066.108.133.1.2s-.085.124-.158.218m2.656-3.593c-.05-.064-.153-.146-.138-.188.028-.087.115-.156.222-.282.071.126.158.227.138.261a.928.928,0,0,1-.222.209m2.112,1.721c-.17-.263-.289-.543-.073-.772.121-.124.383-.1.642-.158-.023.562-.154.841-.57.93m1.1.238c.05-.4.25-.408.529-.326-.076.293-.24.369-.529.326m1.751-2.442a1.932,1.932,0,0,1-.316-.481c-.018-.071.135-.19.209-.286a1.569,1.569,0,0,1,.319.353c.03.057-.1.2-.213.413m9.6-16.072a3.94,3.94,0,0,1-.257,1.018c-.24.706-.458,1.428-.765,2.1a4.953,4.953,0,0,1-1.6,1.961,17.513,17.513,0,0,1-2.227,1.418c-1.23.648-2.493,1.192-3.769,1.716a3.118,3.118,0,0,1-.513.176c-1.3.295-2.493.965-3.772,1.3a30.1,30.1,0,0,1-4.9,1.3c-.806.069-1.62.012-2.431.012v.055c-.676,0-1.354.028-2.028-.009a3.791,3.791,0,0,1-2.094-.9c-.417-.316-.861-.594-1.288-.9a2.916,2.916,0,0,1-.474-.385,7.039,7.039,0,0,1-1.618-6.657,8.792,8.792,0,0,1,1.583-3.094,23.829,23.829,0,0,1,2.418-2.619,8.8,8.8,0,0,1,4.166-2.449c1-.264,1.994-.6,3.008-.809a32.242,32.242,0,0,1,7.912-.861,13.379,13.379,0,0,1,2.252.422c.639.138,1.263.344,1.9.463a4.683,4.683,0,0,1,2.83,1.774,13.327,13.327,0,0,1,.9,1.231,6.169,6.169,0,0,1,.761,3.732M348.8,502.993a.488.488,0,0,0-.135-.005,1.085,1.085,0,0,1-1.116-.626,5.674,5.674,0,0,1-.49-.921c-.376-1.132-.7-2.28-1.068-3.416-.165-.513-.413-1-.554-1.517-.476-1.764-1.063-3.5-1.37-5.311-.231-1.368-.61-2.708-.83-4.076a53.409,53.409,0,0,0-1.155-5.517,6.508,6.508,0,0,1-.09-1.228c-.332-.307-.323-.3-.053-.77.055-.1.007-.259.007-.4l-.566-.043c-.342-1.052-.7-2.067-1-3.1-.39-1.349-.727-2.715-1.091-4.074-.169-.633-.351-1.263-.515-1.9-.14-.541-.252-1.095-.4-1.638-.131-.5-.318-.978-.426-1.482a1.178,1.178,0,0,1,.06-.736,16.529,16.529,0,0,1,1.075-1.7c.539-.751,1.139-1.458,1.666-2.221a1.162,1.162,0,0,0,.114-.784c-.053-.3-.351-.323-.609-.3q-1.584.117-3.167.241a.733.733,0,0,0-.179.057v.515c-.044.02-.089.037-.135.055l-.337-.55c-.5.028-1,.039-1.487.091-.577.06-1.185.012-1.608.447a2.357,2.357,0,0,0-.633-.1c-.937.124-1.884.22-2.8.433a43.105,43.105,0,0,1-5.437,1.074,1.779,1.779,0,0,0-.708.216.479.479,0,0,0,.025.884,5.393,5.393,0,0,0,1.033.493c.506.135.621.483.619.94,0,.706-.032,1.411-.018,2.115.005.307-.041.543-.323.687-.023.011-.014.087-.027.181.108.121.238.263.309.342-.126.268-.341.586-.291.641.268.291.119.637.1.907a20.041,20.041,0,0,1-.325,2.09c-.346.039-.625-.271-.836.06a.445.445,0,0,0-.009.325,7.1,7.1,0,0,0,.729.172c-.021.531-.523.985-.321,1.7a2.714,2.714,0,0,0-.589-.154c-.13,0-.364.074-.373.138a.879.879,0,0,0,.122.5c.039.069.236.023.309.091a1.081,1.081,0,0,1,.35.468.4.4,0,0,1-.289.486c-.149.05-.264.209-.449.365a.934.934,0,0,1,.367,1.2c-.133.516-.229,1.043-.335,1.567q-.729,3.625-1.457,7.252a2.482,2.482,0,0,1-.082.27c-.309,1.022-.63,2.039-.924,3.066-.186.653-.323,1.32-.506,1.977-.2.722-.424,1.436-.644,2.151a3.957,3.957,0,0,1-.186.429c-.3-.066-.561-.128-.79-.177-.358.635.133.8.426,1.052-.252.985-.488,1.939-.742,2.887-.309,1.155-.674,2.3-.94,3.462a4.823,4.823,0,0,1-.923,2.016,5.5,5.5,0,0,1-1.375,1.434,7.164,7.164,0,0,1-2.912,1.23.516.516,0,0,0-.5.493,1,1,0,0,0,.222.619.837.837,0,0,0,.531.231c.765.06,1.53.121,2.294.117a26.982,26.982,0,0,0,4.91-.419c1.262-.241,2.528-.467,3.8-.644,1.428-.2,2.867-.309,4.3-.513,1.27-.179,2.532-.422,3.792-.665a12.066,12.066,0,0,0,1.3-.38.43.43,0,0,0,.311-.547.7.7,0,0,0-.342-.447c-.532-.181-1.086-.293-1.629-.437a2.879,2.879,0,0,1-2.058-1.214,3.632,3.632,0,0,1-.515-2.633c.106-.458.259-.9.367-1.359a31.685,31.685,0,0,0,.685-6.31,16.376,16.376,0,0,1,.309-2.3.6.6,0,0,1,.316-.394,5.868,5.868,0,0,1,1.1-.293,23.69,23.69,0,0,1,5.172-.518c.268.012.539-.041.809-.048.291-.009.582,0,.882,0a22.151,22.151,0,0,1,1.162,3.934c.316,1.638.632,3.277.9,4.924a5.594,5.594,0,0,1,.2,2.912,1.62,1.62,0,0,0,.027.491,3.622,3.622,0,0,1-.02.774.871.871,0,0,1-.3.509,13.589,13.589,0,0,1-1.187.662c-.555.3-1.12.578-1.663.9a.581.581,0,0,0-.248.442.853.853,0,0,0,.295.506.723.723,0,0,0,.46.059c1.459-.11,2.919-.213,4.376-.348.538-.05,1.063-.215,1.6-.271,1.54-.17,3.084-.309,4.624-.465.49-.05.781-.337.761-.731-.016-.323-.277-.538-.731-.594m-20.363-12.263c.083.122.163.188.158.248a.26.26,0,0,1-.131.193c-.05.018-.131-.06-.2-.1.044-.092.09-.185.172-.346m-.266,2.124a.341.341,0,0,1-.167-.516c.245-.348.447-.069.692.071-.094.36-.218.591-.525.445m.546,1.952-.115-.025c.021-.137.041-.273.062-.408l.167.03c-.037.135-.076.27-.114.4m1.425-27.8c-.055-.044-.108-.092-.163-.137.087-.1.172-.193.257-.287.039.03.08.062.119.09Zm7.885-2.358c.133-.021.291.133.436.206-.067.126-.108.295-.211.367a2.2,2.2,0,0,1-.541.2c-.082-.4-.062-.708.316-.768m-5.378-2.227a.455.455,0,0,1,.422.011,1.739,1.739,0,0,1,.486.561.6.6,0,0,1-.046.488,5.252,5.252,0,0,1-.616.68,2.815,2.815,0,0,0-.106-.8c-.1-.2-.312-.33-.527-.539a1.84,1.84,0,0,1,.387-.4m1.047,3.19a6.055,6.055,0,0,1-.5.472.344.344,0,0,1-.3.039c-.082-.037-.2-.192-.177-.254.128-.394,0-.919.532-1.139.144.282.295.577.449.882m-2.9,1.207c-.05-.064-.151-.146-.137-.185.03-.087.119-.153.227-.275.064.124.144.22.122.254a.94.94,0,0,1-.213.206m.724-1.455c.094-.007.2.133.318.225-.245.264-.437.3-.708,0,.151-.094.268-.216.39-.224m3.662,21.6c-1.077.059-2.161-.011-3.24-.051-.552-.021-.795-.311-.561-.813a14.53,14.53,0,0,0,.609-3.164,9.868,9.868,0,0,1,.442-1.405,21.78,21.78,0,0,0,1.253-5.4,16.337,16.337,0,0,1,.421-1.991,2.019,2.019,0,0,1,.3-.513l.192.037a9.444,9.444,0,0,1,.688,2.683,17.586,17.586,0,0,0,.188,2.1,5.162,5.162,0,0,0,.715,2.039c.067.121.2.247.2.364a4.161,4.161,0,0,0,.564,1.707,2.753,2.753,0,0,1,.2,1.585.8.8,0,0,0,.126.591,3.566,3.566,0,0,1,.522,1.815,24.163,24.163,0,0,1-2.608.413m10.068,14.069a3.531,3.531,0,0,1-1.258-2.06c-.172-1.185-.46-2.355-.717-3.524-.382-1.742-.829-3.472-1.15-5.227a14.09,14.09,0,0,0-.722-2.626c-.222-.564-.344-1.168-.513-1.753-.215-.742-.454-1.478-.646-2.229a22.916,22.916,0,0,1-.63-2.809c-.208-1.682-.429-3.359-.784-5.016-.138-.641-.236-1.29-.362-1.936a1.819,1.819,0,0,0-.179-.531,12.476,12.476,0,0,1-1.015-3.134,3.172,3.172,0,0,0-.185-.678c-.479-.88.062-1.478.5-2.223.16.644.319,1.173.421,1.718.311,1.684.589,3.375.9,5.061.17.923.382,1.84.564,2.761.124.621.215,1.249.348,1.868a14.014,14.014,0,0,0,.383,1.423,28,28,0,0,1,1.027,4.088c.2,1.228.456,2.447.706,3.668.316,1.538.617,3.082.988,4.606.316,1.3.766,2.56,1.077,3.859.268,1.127.715,2.177,1.072,3.267.144.438.209.907.31,1.363-.044.02-.089.043-.133.064m-62.57-18.271a30.278,30.278,0,0,0-.859-3.187,8.665,8.665,0,0,0-.617-1.483c-.357-.678-.806-1.306-1.144-1.993a11.2,11.2,0,0,0-2.019-2.88,9.992,9.992,0,0,0-4.188-2.741,9.79,9.79,0,0,0-5.107-.639c-.706.163-1.5.094-2.026.79a.232.232,0,0,1-.236.043c-.4-.287-.77.069-1.157.044a.337.337,0,0,0-.247.2c-.169.449-.57.552-.949.786-.053-.245-.1-.431-.14-.628-.238.057-.318.419-.605.222-.066-.044-.215.021-.314.062a20.032,20.032,0,0,0-3.685,2.182,13.927,13.927,0,0,0-2.651,2.7,5.63,5.63,0,0,0-.784,1.146c-.119.254-.248.481-.385.72a4.484,4.484,0,0,0-.926,1.893,6.275,6.275,0,0,0-.516.7c-.11.2-.131.453-.225.664a25.573,25.573,0,0,0-1.349,4.647,17.713,17.713,0,0,0-.476,3.061c-.075,1.6-.028,3.2.011,4.8.025,1.034.165,2.067.183,3.1a19.587,19.587,0,0,0,.344,4.072c.126.547.243,1.1.316,1.661a17.286,17.286,0,0,0,1.464,4.9,6.368,6.368,0,0,0,1.169,1.618c.545.586,1.215,1.04,1.751,1.632a10.6,10.6,0,0,0,2.113,1.737,3.564,3.564,0,0,0,.834.452c.751.247,1.514.451,2.273.665a12.351,12.351,0,0,0,4.427.369c.454-.039,1.006-.027,1.272-.612.03-.069.318-.1.415-.03a.9.9,0,0,0,.9,0c.3-.108.609-.17.9-.293a14.483,14.483,0,0,0,2.088-.965,17.42,17.42,0,0,0,2.323-1.8c.728-.658,1.377-1.414,2.044-2.143a1.206,1.206,0,0,0,.279-.548,3.539,3.539,0,0,1,.745-1.4c.357-.486.72-.967,1.04-1.478a7.047,7.047,0,0,1,.728-1.336,9.055,9.055,0,0,0,1.654-3.048c.213-.492.255-1.091.887-1.256.053-.014.094-.082.161-.142a1.92,1.92,0,0,0,.2.382.347.347,0,0,0,.273.13.38.38,0,0,0,.188-.252.54.54,0,0,0-.568-.672c-.24-.011-.47-.092-.422-.3a4.388,4.388,0,0,1,.532-1.569c.534-.744.605-.823.2-1.766a.806.806,0,0,1-.005-.406c.117-.687.266-1.366.366-2.055a23.274,23.274,0,0,0,0-5.981c-.144-1.262-.248-2.534-.481-3.778m-2.725,1.446c-.018.048-.035.1-.053.142a.576.576,0,0,1-.548-.344Zm-2.8-1.286c.681.261,1.347.571,2.014.875.06.028.094.115.137.183a3.6,3.6,0,0,1-1.7-.515c-.378-.174-.742-.378-1.111-.571a1.832,1.832,0,0,1,.664.028m-11.1-12.059c.046.064.133.13.13.19s-.087.131-.185.259c-.053-.142-.11-.222-.1-.28s.1-.114.151-.169m-2.436,2.69a.236.236,0,0,1,.238-.018.409.409,0,0,1,.1.291c-.053.325-.227.413-.873.378.232-.286.374-.481.538-.651m-.142-1.451c-.4.106-.4.106-.536-.421l.536.421m-1.031,2.335c.339.3.234.772.389,1.137.03.066-.062.231-.14.293-.225.179-.47.328-.768.529a1.316,1.316,0,0,1,.257-1.088c.231-.261-.227-.683.263-.871m-.431-1.854a.26.26,0,0,1,.131.19c0,.046-.1.153-.138.144-.064-.012-.114-.1-.209-.188.1-.071.179-.163.216-.146m-2.8,3.794c.067-.005.138.048.266.1-.1.114-.153.176-.206.234-.051-.057-.126-.108-.149-.177a.188.188,0,0,1,.089-.156m-1.052,1.98c-.222.472-.5.135-.745.229-.036-.245-.064-.44-.106-.722.335.2.589.342.852.493m-1.309.8c.059.11.117.222.169.337l-.1.066c-.075-.1-.142-.206-.211-.312l.144-.09m1.842,3.856a.318.318,0,0,1,.124-.057c1.526-.27,2.935-1,4.514-1.113,1.679-.117,3.336-.52,5.014-.648a18.939,18.939,0,0,1,3.224.183,20.1,20.1,0,0,1,2.2.339,5.645,5.645,0,0,1,2.615,1.143c-.9-.206-1.8-.421-2.7-.612a21.983,21.983,0,0,0-5.05-.241,17.323,17.323,0,0,0-2.527.415c-1.219.215-2.44.41-3.655.649a5.168,5.168,0,0,0-1.409.44c-.845.438-1.641.969-2.466,1.444a20.509,20.509,0,0,0-3.455,2.781c-.185.167-.371.332-.566.506-.034-.078-.071-.128-.06-.145a12.965,12.965,0,0,1,2.115-3.405c.653-.609,1.384-1.123,2.08-1.679m-3.3-3.254c.011-.05.186-.121.22-.092a1.051,1.051,0,0,1,.332.383,1.273,1.273,0,0,1,.012.52c0,.039-.1.069-.2.138a1.79,1.79,0,0,1-.383-.433.975.975,0,0,1,.023-.516m.259,1.6c-.257.046-.486.167-.791-.053.522-.481.523-.481.791.053m-1,.531c.089-.005.188.169.39.378h-.683c-.021-.048-.039-.094-.06-.142.117-.085.232-.229.353-.236m2.424,22.524c.341-.456.444-.454.88.021-.484.31-.49.31-.88-.021m3.609,2.715c-.447-.254-.447-.254,0-.637Zm5.973,6.569c-.1.009-.208.016-.31.023l.025-.249c.1.037.2.075.3.114,0,.036-.009.074-.014.112m.852-.071c-.351-.39,0-.694-.021-1.029.4,0,.282.286.316.465.044.243.028.474-.295.564m1.65-1.679c-.05.048-.254-.074-.444-.138a5.406,5.406,0,0,1,.334-.667.287.287,0,0,1,.287-.069c.09.066.193.243.165.323a1.492,1.492,0,0,1-.342.552m12.7-21.86c-.149.736-.247,1.487-.421,2.218a9.323,9.323,0,0,1-.5,1.24c-.161-.342-.025-.763-.474-.68a7.762,7.762,0,0,1-.238.93,8.1,8.1,0,0,1-.445.861c.121.06.2.1.311.16-.213.381-.415.767-.637,1.139-.2.335-.177.9-.752.8a3.048,3.048,0,0,1-1.274,1.854c-.594.421-1.246.752-1.856,1.15-.382.247-.712.591-1.107.8a12.087,12.087,0,0,1-4.638,1.627,30.3,30.3,0,0,0-3,.5,14.59,14.59,0,0,1-3.971.034c-.447-.037-.889-.142-1.336-.208a7.628,7.628,0,0,1-3.123-1.269,1.67,1.67,0,0,0-.477-.259,4.266,4.266,0,0,1-2.734-2.626c-.348-.734-.783-1.428-1.091-2.179a20.431,20.431,0,0,1-.662-2.136c-.053-.177-.048-.373-.092-.554a1.208,1.208,0,0,1,.179-1.212,5.518,5.518,0,0,0,.6-1.56,4.649,4.649,0,0,1,1.506-2.2c.7-.55,1.338-1.189,2.053-1.716s1.48-.978,2.241-1.43a12.94,12.94,0,0,1,1.624-.845,7.583,7.583,0,0,1,1.427-.392c1.238-.243,2.482-.461,3.724-.687a14.336,14.336,0,0,1,3.018-.284,18.108,18.108,0,0,1,4.42.509,12.716,12.716,0,0,1,3.263,1.1,4.925,4.925,0,0,0,1.2.472,3.364,3.364,0,0,1,1.741,1.152c.35.429.747.822,1.072,1.269a2.961,2.961,0,0,1,.447,2.417m201.181-1.957a2.068,2.068,0,0,1-1.091-.892,10.579,10.579,0,0,1-1.208-2.823c-.314-.88-.518-1.8-.8-2.7-.321-1.027-.715-2.033-1-3.07-.433-1.558-.8-3.135-1.2-4.706-.138-.545-.3-1.084-.424-1.636-.224-1.031-.417-2.071-.637-3.105-.225-1.054-.488-2.1-.7-3.162-.461-2.3-.9-4.612-1.357-6.913-.17-.853-.413-1.691-.557-2.546a29.878,29.878,0,0,0-1.281-5.476,4.163,4.163,0,0,1-.124-.853h2.221c-.172-.3-.247-.573-.419-.706a3.5,3.5,0,0,0-1.5-.766c-.4-.073-.781-.227-1.175-.321a11.952,11.952,0,0,0-1.847-.387q-2.861-.2-5.728-.307c-1.262-.043-2.527-.023-3.788.009a3.084,3.084,0,0,0-1.176.259c-.557.254-.575.761-.1,1.137a5.378,5.378,0,0,1,1.2.994,15.688,15.688,0,0,1,1.081,2.106,1.224,1.224,0,0,1,.082.413,9.249,9.249,0,0,1-.1,3.025c-.339,1.389-.736,2.766-1.173,4.127a40.1,40.1,0,0,0-1.994,6.368,1.668,1.668,0,0,1-.082.268,59.57,59.57,0,0,0-1.542,6.514c-.185.923-.307,1.861-.552,2.764-.6,2.222-1.219,4.441-1.911,6.631-.445,1.405-1,2.775-1.57,4.133-.584,1.4-1.24,2.768-1.851,4.113.2.263.342.46.5.667-.4.156-.4.156-.617-.311a3.859,3.859,0,0,0-2.209,1.269,2.716,2.716,0,0,1-.752.461.684.684,0,0,0-.433.717,7.17,7.17,0,0,0,.758-.057q2.9-.5,5.82-.763c1.457-.133,2.906-.364,4.358-.557a4.156,4.156,0,0,1,.727-.114,25.053,25.053,0,0,0,2.649-.247,16.063,16.063,0,0,0,2.536-.4,11.067,11.067,0,0,0,1.538-.507.6.6,0,0,0,.4-.6.5.5,0,0,0-.46-.525,1.486,1.486,0,0,1-1.024-.743,5.287,5.287,0,0,1-.932-3.189,14.909,14.909,0,0,1,.605-3.755c.146-.445.3-.891.4-1.347.211-.891.383-1.792.594-2.683.263-1.095.577-2.181.814-3.281.131-.607.309-1.07,1.008-1.065a3.867,3.867,0,0,0,.525-.122c1.338-.183,2.677-.367,4.017-.534a6.388,6.388,0,0,1,.822-.005,17.864,17.864,0,0,0,.893,2.3,23.613,23.613,0,0,1,1.1,2.152c.018.043.055.076.071.121a5.892,5.892,0,0,1,.408,1.114,29.069,29.069,0,0,0,1.21,4.484,3.865,3.865,0,0,1,.192,2.592c-.3.834-.486,1.774-1.43,2.158a.794.794,0,0,0-.312.263c-.259.357-.516.719-.747,1.093a.792.792,0,0,0,.021.926.756.756,0,0,0,.921.208c.944-.3,1.891-.6,2.844-.87a2.291,2.291,0,0,1,.935-.075,20.567,20.567,0,0,0,4.445.059,1.973,1.973,0,0,0,.72-.151.439.439,0,0,0,.092-.788,1.939,1.939,0,0,0-.706-.4m-29.387,1.2c-.188.082-.335.018-.378-.4l.508.128c-.041.09-.06.238-.13.268m2.115-1.038a.886.886,0,0,1-.163-.236c.069-.036.14-.1.2-.1s.108.094.2.181c-.11.073-.215.169-.238.151m1.925,1.255a2.078,2.078,0,0,1-.259-.424c-.007-.035.14-.151.176-.135a.368.368,0,0,1,.192.211c.021.071-.048.169-.108.348M459.48,469.9c-.206-.364-.091-.522.255-.607a.662.662,0,0,1-.255.607m3-13.145c.057.011.115.023.172.035.018.154.092.334.041.46-.089.22-.291.2-.589.114.149-.241.263-.426.376-.609m-.912,3.707,1.042.763-.924.607c-.185-.334-.339-.609-.507-.912l.39-.458m.1,3.334c-.2.218-.419.193-.681-.119.209-.153.362-.264.527-.383.209.146.341.3.154.5m.085.6.623-.545c.064.5.064.5-.623.545m.692-1.62c-.3-.053-.3-.273-.232-.554.264.009.488.032.46.364-.005.075-.16.2-.227.19m1.164-.436.293-.765c.073.493.073.493-.293.765m.545-3.5c.11.218-.165.557-.6.483-.027-.241-.053-.484-.08-.715-.41-.17-.428.225-.609.437-.3-.305,0-.672-.282-1,.241-.023.339-.062.4-.032a.453.453,0,0,0,.637-.147c.28-.327.39-.275.722.169-.023.259-.4.4-.192.8m2.967,12.389c.481-1.872.96-3.694,1.414-5.522s.88-3.662,1.318-5.493c.044.005.089.011.133.014.055.381.094.768.169,1.146.142.71.3,1.42.458,2.124.284,1.256.587,2.507.859,3.765.216,1.008.4,2.021.593,3.032.064.337.117.676.188,1.077l-5.132-.144m12.2,12.983c-.752-2.417-1.53-4.828-2.2-7.27-.5-1.831-.857-3.7-1.288-5.554-.229-.985-.488-1.961-.726-2.944-.082-.341-.13-.69-.208-1.033q-.245-1.1-.5-2.2-.679-2.877-1.364-5.754c-.4-1.666-.786-3.332-1.2-4.993a3.986,3.986,0,0,1-.005-1.95c.1-.41.183-.823.271-1.235l.169-.007c.1.426.225.846.3,1.278.477,2.708.935,5.419,1.419,8.127.181,1.015.428,2.017.626,3.031.094.484.128.981.225,1.466.192.967.408,1.929.616,2.894.213.985.41,1.978.651,2.958.364,1.478.766,2.945,1.146,4.418.053.2.076.413.114.621a14.834,14.834,0,0,0,1.333,4.564,4.453,4.453,0,0,1,.355.914c.36,1.306.7,2.615,1.082,4.049a2.7,2.7,0,0,1-.814-1.382M443.732,458.37c.1-.151.216-.3.312-.454.58-.951,1.145-1.915,1.741-2.853.424-.665.916-1.281,1.334-1.948a4.655,4.655,0,0,1,2.6-2.229,5.168,5.168,0,0,0,.93-.415.386.386,0,0,0,.174-.31.441.441,0,0,0-.282-.238.664.664,0,0,0-.325.057,12.59,12.59,0,0,1-3.474.36c-.511-.009-1.024.06-1.579.1.043.27.073.463.1.633-.515.445-.582-.516-.955-.312-.138.593-.552.862-1.022,1.267.037-.515.064-.891.1-1.345a4.538,4.538,0,0,1-1.136.277c-1.994.186-3.992.293-5.983.541-1.341.165-2.672.365-4,.586-.264.043-.539.085-.641.531.234.025.444.044.651.074.623.085,1.247.169,1.87.268a1.346,1.346,0,0,1,.871.61,2.017,2.017,0,0,1,.048,2.262,33.09,33.09,0,0,0-1.932,4.117,3.222,3.222,0,0,1-.279.566c-.68,1.194-1.354,2.392-2.049,3.575-1.05,1.787-2,3.634-3.169,5.348-1.086,1.588-2.028,3.281-3.043,4.92-.188.3-.428.568-.644.852l-.158-.1c0-.211-.005-.422,0-.633q.12-4.913.247-9.827a5.981,5.981,0,0,1,.073-1.056c.319-1.54.635-3.082,1.015-4.608.261-1.045.628-2.065.933-3.1a1.194,1.194,0,0,0,.094-.678.91.91,0,0,1,.213-.958,3.948,3.948,0,0,0,.369-.591c.078-.179.176-.445.1-.575s-.35-.176-.531-.16a20.829,20.829,0,0,0-3.694.325,8.291,8.291,0,0,1-1.2.177c-1.365.153-2.731.295-4.1.447-.131.014-.259.082-.39.1a.413.413,0,0,0-.365.5c.016.243.156.35.389.406a1.677,1.677,0,0,1,1.269,1.494c.087.912.163,1.826.243,2.741a64.034,64.034,0,0,1,.03,8.693c-.08,1.577-.2,3.153-.245,4.729-.066,2.31-.1,4.622-.11,6.933-.023,4.1-.018,8.2-.027,12.309,0,.4.011.8-.027,1.2a.751.751,0,0,1-.557.775c-.417.121-.527.444-.426.893.03.131.082.261.124.394-.433.3-.845.58-1.26.859-.22.147-.421.309-.323.623a.533.533,0,0,0,.642.39,6.557,6.557,0,0,0,1.178-.287,6.62,6.62,0,0,1,1.92-.342,24.986,24.986,0,0,0,4.1-.3c.814-.176,1.645-.27,2.465-.417a2.208,2.208,0,0,0,.46-.2,1.613,1.613,0,0,0-.259-.518c-.493-.442-1.042-.818-1.517-1.278a2.159,2.159,0,0,1-.747-1.446c-.05-.772-.185-1.54-.263-2.312-.08-.8-.144-1.593-.2-2.392a2.393,2.393,0,0,1,.083-.5c.325.523.325.523.706.506.071-.6.071-.6-.758-1.265.1-.68-.222-1.451.408-2.138-.413-.028-.387-.3-.385-.57.009-1.274.012-2.548.023-3.822a3.167,3.167,0,0,1,.057-.4,12.33,12.33,0,0,1,1.7,1.01,13.609,13.609,0,0,1,1.8,1.8,12.638,12.638,0,0,0,2.672,2.775,5.27,5.27,0,0,1,.616.552c.442.4.873.814,1.327,1.2.875.742,1.787,1.439,2.637,2.209,1.024.926,2,1.907,2.993,2.866.161.154.316.314.529.529-.259.248-.468.452-.68.653a3.454,3.454,0,0,0-.449.417c-.348.465-.259.875.279,1.031a5.142,5.142,0,0,0,1.462.176c.924-.012,1.847-.128,2.77-.135a9.792,9.792,0,0,0,2.745-.261c.3-.089.617-.126.923-.2a7.742,7.742,0,0,0,1.294-.341,2.19,2.19,0,0,0,.66-.594.45.45,0,0,0-.144-.662,1.693,1.693,0,0,0-.436-.181c-1.365-.424-2.372-1.5-3.6-2.166a.183.183,0,0,1-.048-.05,8.342,8.342,0,0,0-2.124-1.613,7.233,7.233,0,0,1-1.476-1.1c-.822-.806-1.581-1.675-2.367-2.516-.8-.861-1.625-1.7-2.4-2.583-.914-1.038-1.785-2.119-2.681-3.176a.785.785,0,0,1-.071-1.026c.36-.594.69-1.208,1.043-1.808.568-.96,1.134-1.92,1.718-2.867.486-.793,1-1.567,1.494-2.355.6-.962,1.185-1.936,1.8-2.89.428-.662.912-1.283,1.343-1.945.4-.621.717-1.313,1.164-1.9a32.786,32.786,0,0,0,3.192-4.967,7.018,7.018,0,0,1,.506-.749m2.188-4.743c.05.039.1.08.146.119l-.816,1.024-.117-.1.788-1.047m-5.323-2.085c.181-.25.374-.078.641.025-.2.27-.328.495-.586.321a.365.365,0,0,1-.055-.346m.607,1a2.549,2.549,0,0,1-.225-.351c-.007-.012.138-.154.174-.138.19.082.254.224.051.49m-2.738,2.615a3.422,3.422,0,0,1,.08.406c-.078.014-.156.03-.234.046l-.027-.46c.064,0,.176-.014.181.007m-1.079,4.828c.238.525.238.525-.415.593.128-.183.257-.366.415-.593m-1.31,1.315a.282.282,0,0,1,.037.22c-.19.192-.287.012-.525-.231a2.559,2.559,0,0,1,.488.011m-.692,1.588c-.128.327-.264.41-.522.147.151-.044.3-.085.522-.147m7.463-4.7a4.491,4.491,0,0,0-1.43,2.092,30.36,30.36,0,0,1-2.252,3.5c-.513.768-1,1.554-1.533,2.312-.554.8-1.161,1.558-1.709,2.362a5.884,5.884,0,0,0-1.274,2.213.362.362,0,0,1-.069.121c-.562.848-1.146,1.686-1.686,2.552-.5.805-.946,1.652-1.439,2.465-.247.408-.545.781-.821,1.171l-.119-.059c.028-.176.05-.349.09-.522.067-.3.163-.587.22-.885a2.965,2.965,0,0,1,.584-1.318c.451-.578.763-1.274,1.175-1.89.591-.884,1.219-1.739,1.829-2.608.465-.662.937-1.32,1.386-1.991.578-.868,1.13-1.753,1.707-2.621.55-.829,1.111-1.65,1.675-2.468.408-.593.868-1.148,1.235-1.767.869-1.462,2.1-2.626,3.018-4.049a17.944,17.944,0,0,1,1.31-1.611c.019.021.041.044.06.069q-.916,1.384-1.835,2.768a.5.5,0,0,1-.122.167m-64.394,27.4a4.019,4.019,0,0,1-.534.8c-.571.561-1.187,1.073-1.773,1.622a8.514,8.514,0,0,1-3.558,1.938,15.183,15.183,0,0,0-3.355,1.033,4.065,4.065,0,0,1-1.189.229,7.52,7.52,0,0,0-1.18.263,39.4,39.4,0,0,1-4.117,1.349c-.188.048-.383.064-.617.1-.064-.337-.14-.607-.163-.885-.1-1.173-.215-2.346-.259-3.522-.066-1.764-.082-3.529-.11-5.293-.041-2.5-.069-5-.114-7.493-.016-.871-.076-1.741-.087-2.615-.009-.893-.021-1.787.036-2.676.082-1.292.232-2.578.341-3.866a7.424,7.424,0,0,1,.456-2.195c.287-.717.481-1.476.786-2.181a3.61,3.61,0,0,1,1.8-2.259c.326-.128.342-.428.229-.71a.822.822,0,0,0-.838-.584c-1.483.043-2.969.071-4.452.106-.248.27-.165.843-.7.712-.05-.163-.1-.335-.169-.575-.811.122-1.609.24-2.406.367-1.178.19-2.355.39-3.531.589a1.118,1.118,0,0,0-.456.1.563.563,0,0,0-.167.394c-.005.087.1.208.188.27.506.362,1.118.587,1.382,1.246.028.073.153.1.215.163a3.049,3.049,0,0,1,.459.513,5.5,5.5,0,0,1,.818,2.587,10.644,10.644,0,0,0,.325,2.367,5.688,5.688,0,0,1,.144,2.367c-.035.28-.039.564-.082.843a24.08,24.08,0,0,0,.014,3.524c-.023,2.9-.119,5.8-.115,8.7,0,3.866.007,7.735-.2,11.6a14.019,14.019,0,0,1-1.361,5.788c-.179.346-.527.63-.612.988a8.641,8.641,0,0,1-.536,1.349c-.2.49-.075.731.431.742a16.464,16.464,0,0,0,1.824-.05c1.256-.112,2.509-.27,3.765-.389,1.166-.11,2.337-.177,3.5-.293,1.634-.165,3.27-.344,4.9-.55a4.278,4.278,0,0,0,.916-.341,2.525,2.525,0,0,0,.6.048c.868-.122,1.735-.266,2.6-.417a.51.51,0,0,0,.307-.2c.156-.241.323-.389.474-.255.3.264.6.137.894.083.822-.144,1.638-.318,2.458-.463a1.584,1.584,0,0,0,1.473-1.471q.253-1.352.532-2.7c.153-.738.362-1.464.483-2.206.3-1.854.591-3.712.841-5.577.131-.978.174-1.968.247-2.953a1.1,1.1,0,0,0-.069-.323.5.5,0,0,0-.7.259M360.425,476.7c.082,2.142.2,4.282.232,6.423.03,1.671-.053,3.345-.053,5.016,0,1.318.053,2.638.08,3.959.007.3,0,.609,0,.976l-.743.112c-.036-.39-.091-.731-.092-1.073-.007-2.8,0-5.607-.007-8.412-.007-3.016-.016-6.033-.046-9.049a23.674,23.674,0,0,1,.791-6.425c.106-.4.14-.816.208-1.228l.078.02c-.073.908-.135,1.815-.22,2.722-.073.795-.177,1.588-.257,2.383a11.981,11.981,0,0,0-.1,1.4c.021,1.057.083,2.117.126,3.176m.294-16.039c-.087-.121-.174-.24-.259-.36l.193-.176.284.348-.218.188m1.7,39.6c.213-.216.376-.216.571.035-.213.224-.376.227-.571-.035m.919,1.906a.274.274,0,0,1-.366-.247c-.037-.2-.067-.4-.1-.6.5.133.5.138.467.843m-.468-.852c-.03-.16-.128-.358-.071-.468.1-.181.291-.13.58.1l-.509.367m2.387.641-.5-.564c.138-.218.255-.408.374-.594.474.325.474.325.13,1.159m.023-1.877c.185-.16.3-.263.515-.444.034.531-.1.621-.515.444m6.079-2.378c.08-.337.232-.412.531-.36-.1.277-.268.332-.531.36m.687,1.391c.477-.238.57-.2.806.342l-.806-.342m-61.929-8.7a5.255,5.255,0,0,0-.4.635,35.524,35.524,0,0,0-1.787,4.791,4.334,4.334,0,0,1-.477,1.077,13.471,13.471,0,0,1-.939,1.292,2.73,2.73,0,0,1-.637.617c-.536.337-1.107.616-1.654.937a8.68,8.68,0,0,1-2.89,1.331,18.412,18.412,0,0,1-2.411.286c-1.959.076-3.918.1-5.877.137-.035,0-.069-.05-.09-.067-.082-.633-.2-1.255-.229-1.879-.027-.655.039-1.315.066-1.971.005-.144.023-.284.023-.426-.005-2.665.193-5.321.392-7.976.082-1.079.135-2.165.154-3.247.012-.8-.048-1.6-.085-2.4-.016-.353-.06-.7-.087-1.056-.032-.445-.055-.893-.083-1.338-.03-.468-.067-.935-.094-1.405a11.228,11.228,0,0,1-.055-1.4c.055-.795.146-1.592.266-2.378a32.785,32.785,0,0,0,.454-6.4.852.852,0,0,1,.357-.786c.4-.3.8-.609,1.2-.909a.783.783,0,0,0,.387-.768c-.515-.078-.96-.419-1.521-.371-1.459.121-2.919.22-4.377.353-.491.046-.976.172-1.466.247-.843.131-1.689.254-2.534.374-.177.025-.364,0-.538.041a.74.74,0,0,0-.6.672.7.7,0,0,0,.493.752,4.585,4.585,0,0,0,.706.236c.312.071.431.25.475.582a5.917,5.917,0,0,0,.719,2.041,3.008,3.008,0,0,1,.357,1.194c.106,1.622.16,3.245.232,4.869.018.447.034.9.037,1.343.005,1.2.034,2.4,0,3.6-.067,2.261-.232,4.518-.248,6.778a150.529,150.529,0,0,1-.6,16.028,4.029,4.029,0,0,1-.564,1.865,2.7,2.7,0,0,0-.378.9c-.1.456-.319.7-.779.71a1.232,1.232,0,0,0-.515.138.6.6,0,0,0-.341.7,1.258,1.258,0,0,0,.417.584.754.754,0,0,0,.52.087c1.047-.131,2.088-.286,3.135-.428.958-.13,1.915-.277,2.876-.376.987-.1,1.977-.138,2.963-.224,1.191-.1,2.376-.3,3.567-.319a24.981,24.981,0,0,0,5.611-.806,7.321,7.321,0,0,1,1.877-.4,11.354,11.354,0,0,0,2.394-.27.7.7,0,0,0,.589-.589c.053-.206.1-.412.144-.617.224-.956.47-1.911.669-2.875a7.687,7.687,0,0,0,.284-2.016c-.037-.591.037-1.159.032-1.737,0-.24-.048-.477-.076-.749.44.028.61-.279.644-.724.012-.165.05-.327.071-.49.227-1.82.461-3.641.68-5.463a11.473,11.473,0,0,0,.1-1.48c0-.357-.012-.772-.557-.859m-18.69,11.081c-.575-.057-.758-.211-.775-.7a10.79,10.79,0,0,1,.062-1.2c.039-.509.1-1.018.137-1.528.041-.632.046-1.269.089-1.9.137-1.984.282-3.967.424-5.949.021,0,.043.005.064.009Zm.976-28.782c-.057.772-.185,1.537-.24,2.31-.057.793-.059,1.592-.092,2.39-.027.563-.066,1.123-.1,1.687-.1,1.687-.22,3.373-.307,5.061a8.864,8.864,0,0,0,.059,1.336,10.641,10.641,0,0,1-.264,2.924,46.789,46.789,0,0,1,0-8.847c.209-1.439.323-2.9.4-4.354a24.166,24.166,0,0,0-.09-2.75,1.838,1.838,0,0,1,.644-1.451c0,.664.03,1.182-.007,1.695m3.538,36.421c-.14-.186-.083-.335.169-.481.027.188.048.348.078.561-.135-.041-.216-.039-.247-.08m5.6-1.654c-.06-.005-.114-.1-.17-.153.057-.059.11-.161.169-.165s.131.085.247.169c-.114.075-.183.153-.245.149m.692-.117c.389-.284.389-.284.635.254-.371.259-.371.259-.635-.254m2.623-.115a1.072,1.072,0,0,1-.121-.2,1.777,1.777,0,0,1-.057-.294,1.737,1.737,0,0,0-.264-.012c-.177.016-.41.073-.408-.193,0-.126.2-.257.316-.373a.29.29,0,0,1,.181-.08c.413-.007.825,0,1.251,0,.27.761-.039,1.026-.9,1.157m1.258-2a4.059,4.059,0,0,1-.729-.053l-.3.461-.169-.108a.82.82,0,0,0-.158-1.141c.09-.163.151-.284.222-.4.264-.428.571-.426.864,0,.154.227.319.445.477.669.179.25.091.539-.2.571m.449-.978c-.144-.4-.24-.662.14-.889a.6.6,0,0,1-.14.889m.458-4.844c.165-.486.286-.534.813-.25l-.813.25m.782,3.893c-.057-.027-.087-.121-.131-.186.066-.041.14-.124.193-.112s.108.115.209.234c-.135.035-.218.089-.271.064m178.359-48.909c-.11-.852-.211-1.671-1.073-2.085a1.291,1.291,0,0,1-.209-.176,2.322,2.322,0,0,0-2.537-.286,3.589,3.589,0,0,0-2.209,3.21c.08.376.138.756.248,1.123.082.268.335.518.325.77-.014.357.188.5.371.687a2.964,2.964,0,0,0,4.86-.985,5.663,5.663,0,0,0,.225-2.259m-.58,1.482a2.578,2.578,0,0,1-2.4,1.51,2.093,2.093,0,0,1-2.044-2.065,2.151,2.151,0,0,1,1.732-2.236c.133-.012.3-.071.394-.012a21,21,0,0,1,2.1,1.354,1.129,1.129,0,0,1,.215,1.45M235.525,479.474c-.328-.394-.282-.649-.119-.9.188-.295.392-.578.57-.878a8.271,8.271,0,0,0,.777-1.4,11.306,11.306,0,0,1,1.446-2.541,8.288,8.288,0,0,0,1.3-2.924c.133-.614.325-1.215.5-1.87.287.021.541.043.829.067a5.52,5.52,0,0,1-.685,2.058c-1.086,2.009-2.145,4.03-3.235,6.036-.419.772-.885,1.512-1.384,2.355M452,442.292a.578.578,0,0,1-.138-.743c.073-.133.133-.275.2-.415a.974.974,0,0,1,.066-.192c.055-.075.147-.188.2-.176.468.115.561-.69,1.109-.451a.98.98,0,0,1-.005.314.514.514,0,0,0,.36.756c.043.016.106.012.128.043.071.1.126.22.188.33-.128.069-.27.213-.382.19a6.915,6.915,0,0,1-.9-.3,2.6,2.6,0,0,1-.241.454c-.153.169-.325.364-.578.188m-5.88-1.64a5.807,5.807,0,0,1-1.592.866c.211-.515.074-.967.5-1.2-.353-.52-.3-.806.211-.978a.526.526,0,0,1,.4.09,1.236,1.236,0,0,1,.483,1.223m-131.2,56.18a8.323,8.323,0,0,1,.108-1.379c.035-.19.245-.346.479-.658a3.667,3.667,0,0,1,.2.642.762.762,0,0,0,.277.591.7.7,0,0,1,.106.93.919.919,0,0,1-.932.181c-.1-.066-.238-.2-.236-.307m-57.352-36.747h-1.318c.1-.488.2-.935.307-1.466.431-.027.868-.057,1.253-.083.491.731-.493.939-.241,1.549m109.346,13.185a1.385,1.385,0,0,0,0-1.144.1.1,0,0,1,.007-.068c.156-.348.316-.692.477-1.043.486.14.229.451.154.713.163.106.311.2.508.326-.176.488-.332.967-.523,1.427-.037.089-.252.19-.314.153-.133-.08-.337-.3-.309-.364M258.2,459.361c.293-.053.4-.2.476-.477a.475.475,0,0,1,.671-.348c.348.1.357.351.263.662-.066.22-.1.449-.14.656-.47.429-.885.018-1.306-.064-.172-.035-.154-.392.037-.429M251.8,515.552c.68.11,1.343.216,2.044.332-.048.291-.091.554-.149.912-.188-.055-.314-.083-.435-.126-.27-.089-.534-.2-.807-.268a.77.77,0,0,1-.653-.85m-31.4-34.3c.007.16.018.334.027.506.154-.009.3-.02.437-.03.011.083.035.14.018.165a.857.857,0,0,1-.671.412,5.526,5.526,0,0,0-1.2.436c.067-.282.055-.621.193-.715.382-.261.531-.914,1.2-.774M344.991,491.4c.708-.436,1.073-.222,1.391.768a.8.8,0,0,1-.983.112c-.208-.215-.7.055-.676-.5h.58c-.131-.161-.208-.257-.312-.385m101.915-51.437a.392.392,0,0,1-.131-.33.558.558,0,0,1,.366-.227c.616-.032,1.042.539.955,1.272a4.331,4.331,0,0,1-.218.642c-.216-.247-.394-.367-.442-.527-.1-.339-.161-.671-.529-.83m-7.6,29.558a2.667,2.667,0,0,1-.185.527c-.241.394-.593.39-.855.016-.114-.161-.24-.312-.362-.474.108-.087.264-.2.41-.332.389-.346.387-.35.751,0,.082.076.151.165.241.266m43.148,8.742a.293.293,0,0,1-.289.38l-.772.069c-.027-.005-.2.007-.279-.076-.146-.147-.339-.355-.334-.531.009-.3.275-.293.516-.255.286.048.582.041.861.11a.484.484,0,0,1,.3.3M316.4,493.866c-.076-.208.1-.515.339-.483a1.179,1.179,0,0,0,.7-.085c.083-.036.238.1.323.14a1.134,1.134,0,0,1-.619.94c-.19.046-.651-.273-.742-.513m-73.633,1.8c-.106-.076-.14-.323-.133-.49,0-.1.153-.188.238-.28.1.053.179.069.2.117.119.236.27.2.492.156.35-.076.518.08.506.362a.492.492,0,0,1-.582.424,1.97,1.97,0,0,1-.724-.289m193.809-23.734c.1-.137.206-.41.394-.5a.8.8,0,0,1,.614.115c.261.146.254.385-.02.516a.55.55,0,0,0-.371.438c-.018.107-.2.225-.321.252-.057.012-.181-.174-.225-.293a2.559,2.559,0,0,1-.071-.527m-206.7-10.249a.331.331,0,0,1,.209-.491,1.478,1.478,0,0,1,1.02-.146,1.171,1.171,0,0,1-.672,1.011c-.3.078-.444-.138-.557-.374m251.107,13.828c.169.215.357.343.364.483a4.049,4.049,0,0,1-.089,1.034.187.187,0,0,1-.357.066,3.628,3.628,0,0,1-.3-1.061c-.016-.133.208-.3.38-.522m-41.187-27.095c-.048-.121-.032-.374.041-.421a1.929,1.929,0,0,1,.658-.231c.067-.012.236.131.229.186a3.633,3.633,0,0,1-.19.8c-.046.122-.2.206-.321.332a4.312,4.312,0,0,1-.417-.665M316.756,496.833c-.156-.169-.037-.4.154-.529s.385-.259.71-.476c.023.41.039.614.044.818.007.22-.02.484-.277.468a1.021,1.021,0,0,1-.632-.282m-78.875,5.03c.02-.22.064-.438.112-.756.14.02.355-.009.421.08a2,2,0,0,1,.371.77.383.383,0,0,1-.406.447.515.515,0,0,1-.5-.541M448.218,487.9a.664.664,0,0,1-.429.69.291.291,0,0,1-.444-.248,1.131,1.131,0,0,1,.564-.951c.2-.066.319.121.309.509m-229.3,6.984c-.307-.218-.3-.342.161-.944l.768.77a.591.591,0,0,1-.93.174M442.49,463.819c.183.165.587.1.529.5a.653.653,0,0,1-.319.474c-.126.037-.376-.126-.468-.273-.186-.3-.019-.529.259-.7m-33.7,38.369c.135.018.252.17.321.218.016.436-.232.784-.479.774-.266-.011-.309-.22-.312-.442,0-.314.2-.582.47-.55m-85.415-27.656V473.28c.444.112.589.3.6.681.011.42-.307.426-.6.571m.765-3.015a.477.477,0,0,1,.424.552c-.03.2-.05.456-.371.431a.593.593,0,0,1-.481-.578.371.371,0,0,1,.428-.4m38.992,5.653a.508.508,0,0,1,.529.492c0,.337-.236.335-.458.349-.271.012-.429-.106-.4-.4.02-.213.064-.422.33-.436m-142.628,9.9c-.119-.319-.234-.623-.371-.988.442-.16.674-.1.79.271.114.353.011.577-.419.717m14.713-7.216c-.523.832-1,1.585-1.469,2.337-.051-.044-.1-.085-.156-.128.435-.72.869-1.443,1.311-2.159.023-.035.122-.021.314-.05m82.594,15.6c.128-.309.291-.547.729-.419-.007.255.362.532-.016.767-.316.2-.523-.067-.713-.348m-73.864-2.165c-.309.021-.348-.284-.444-.5.165-.261.378-.417.628-.282a.543.543,0,0,1,.172.465.5.5,0,0,1-.357.319M324.8,468.111a.431.431,0,0,1-.263-.312c-.039-.367.145-.6.612-.719a4.082,4.082,0,0,1-.018.811.391.391,0,0,1-.332.22m129.111,5.951c.051-.108.286-.232.36-.192.126.069.286.277.268.4a2.526,2.526,0,0,1-.35.656c-.33-.326-.41-.589-.279-.862m2.66-28.749c-.06-.529-.06-.529.357-.971.35.156.312.484.236.754-.087.31-.353.277-.593.216m-90.474,28.3a3.259,3.259,0,0,1,.248-.681,2.942,2.942,0,0,1,.437.662c.064.243-.128.392-.341.417-.254.03-.362-.174-.344-.4m87.15-28.209a.316.316,0,0,1-.406-.335c-.007-.247.073-.447.33-.417a2.226,2.226,0,0,1,.582.293c-.227.216-.346.421-.506.46m-4.819-.287c.055-.515.218-.774.447-.662a.677.677,0,0,1,.307.461c.035.255-.186.309-.754.2M221.2,480.248c-.092.277-.17.516-.268.807-.339-.156-.607-.271-.5-.58s.4-.287.77-.227m13.89-18.083a2.222,2.222,0,0,1-.3-.476c-.075-.3.115-.431.362-.477.225-.041.378.1.323.318a2.82,2.82,0,0,1-.385.635m213.779-16.291c.648.043.77.213.626.884-.509-.122-.483-.554-.626-.884M242.562,492.03l.594-.781a.672.672,0,0,1,.1.841c-.17.261-.382.1-.7-.06m101.984-.894a.415.415,0,0,1-.122-.382,2.117,2.117,0,0,1,.4-.449c.071.039.142.078.213.115a2.29,2.29,0,0,1-.112.616.383.383,0,0,1-.38.1m97.417-43.88c-.144-.325-.17-.548.119-.657.268-.1.492-.051.548.4l-.667.259m35.516,22.882c.154-.339.4-.256.658-.117.012.291.064.6-.325.626-.192.012-.417-.33-.334-.509m-257.922,9.6c.067.545.067.545-.509.667-.126-.6-.1-.639.509-.667m259.6-7.034c.073,0,.144,0,.216,0a2.228,2.228,0,0,1,.188.5c.012.1-.091.222-.142.335-.126-.069-.348-.13-.358-.213a2.4,2.4,0,0,1,.1-.621m3.341,7.775c-.788.5-.823.5-.9-.092a.785.785,0,0,1,.9.092M281.93,501.233a1.741,1.741,0,0,1,.293.47c.021.078-.161.211-.342.429a2.349,2.349,0,0,1-.232-.626c0-.087.181-.181.282-.273m-31.057-41.35h-.782c-.051-.4.209-.454.412-.472.218-.021.376.124.371.472m62.873,37.794c-.021-.064-.078-.144-.059-.188.092-.216.206-.426.312-.637.067.048.174.078.2.14.078.234-.138.554-.449.685M478.9,472.011a1.789,1.789,0,0,1-.089-.5c0-.032.192-.115.208-.1a1.747,1.747,0,0,1,.257.413c.025.064-.037.168-.078.332-.154-.069-.279-.087-.3-.142m-39.838-.594c.227-.316.465-.192.694-.089.137.264-.025.369-.2.415-.254.067-.4-.087-.5-.327m-71.254-.805c.021-.424.021-.424.484-.575.083.412.083.412-.484.575m82.677,15.854c-.342.28-.554.454-.79.651-.1-.538.089-.719.79-.651m.949-3.944c.1-.069.222-.211.291-.186.121.041.206.188.367.355-.19.08-.327.188-.394.154-.112-.059-.179-.211-.264-.323M242.021,495.843a2,2,0,0,1-.311.474c-.119-.216-.247-.364-.218-.413a1.721,1.721,0,0,1,.339-.342c.069.1.208.213.19.282m77.989-6.283c.027-.291.234-.261.486-.165-.012.185-.025.371-.037.548-.362.064-.47-.133-.449-.383m133.2-40.154h-.8c.071-.17.091-.353.179-.406.277-.161.376.094.619.406M315.97,494.171c.172.193.335.3.33.4a.4.4,0,0,1-.259.295.421.421,0,0,1-.309-.252c-.028-.08.114-.222.238-.438m-97.415-12.55c.009.06.016.124.025.185a3.867,3.867,0,0,1-.57.209.277.277,0,0,1-.231-.154c-.018-.074.069-.252.121-.257a5.054,5.054,0,0,1,.655.018m225.155-40.309a1.689,1.689,0,0,1-.254-.428c-.018-.075.119-.192.275-.422a2.181,2.181,0,0,1,.208.573c0,.092-.149.185-.229.277m-201.9,56.88c.035-.1.208-.227.259-.2.121.055.2.2.358.36a1.535,1.535,0,0,1-.4.161c-.2.011-.282-.144-.216-.319m-1.086-.825c-.009.387-.138.55-.421.447-.067-.023-.133-.254-.1-.351.1-.289.311-.151.52-.1M409.682,500.2c.121.547.085.58-.529.451l.529-.451M246.5,487.537c-.087.085-.287.044-.6.076.208-.318.309-.472.428-.656.3.209.341.417.174.58m190.419-16.761c.124-.163.248-.326.4-.527.137.518.137.518-.4.527m17-27.813c-.176.133-.3.261-.326.241a2.482,2.482,0,0,1-.35-.334c.073-.067.167-.2.218-.188a2.307,2.307,0,0,1,.458.28M251.648,459.619c-.011-.121.087-.25.174-.468.2.3.316.41.295.465-.039.107-.158.181-.243.27-.08-.089-.218-.17-.225-.266M451.726,479a2.281,2.281,0,0,1,.232-.451c.133.176.277.289.261.367a.42.42,0,0,1-.263.241c-.06.018-.24-.128-.231-.158M238.057,499.422c-.066.018-.133.035-.2.055-.286-.163-.323-.362.064-.712.055.273.094.465.135.657m86.451-31.078c.071.172.121.286.225.538l-.649-.053c-.012-.043-.025-.087-.035-.131.14-.106.28-.215.46-.353m-8.808-7.417c-.019-.055.1-.167.16-.252.112.082.224.163.392.289-.147.1-.247.218-.3.2a.439.439,0,0,1-.248-.236m-71.855,29.146c.092-.156.183-.312.3-.511.188.41.188.41-.3.511m237.011-11.335c.1-.011.211.076.4.158-.163.131-.255.264-.342.263s-.186-.133-.279-.208c.073-.076.138-.2.218-.213M253.51,459.48c.163.025.328.053.493.082-.027.1-.023.247-.083.287-.216.14-.357.02-.41-.369m177.979-2.08c-.305-.373-.287-.436.321-.79-.146.357-.229.564-.321.79M245.616,490.883c.05-.027.165.082.307.161-.115.112-.179.227-.257.236s-.172-.08-.259-.128c.067-.094.121-.222.209-.27m232.559-22.336c-.087-.005-.17-.1-.256-.161.085-.083.16-.206.259-.236.062-.016.16.112.3.218-.137.085-.222.183-.3.179M240.69,498.675c-.076.067-.154.133-.259.225-.1-.107-.165-.181-.232-.257.078-.064.167-.192.232-.181.1.02.174.138.259.213m213.449-21.832a1.726,1.726,0,0,1,.057.387.944.944,0,0,1-.133.259c-.261-.247-.208-.4.076-.646m-137.232,18.1c-.142.041-.282.083-.426.11a.609.609,0,0,1-.062-.163c.135-.073.277-.133.417-.2.023.083.048.167.071.25M242.54,492.7c.007-.08.119-.151.186-.225a.812.812,0,0,1,.192.225c.018.051-.066.142-.1.215l-.167.106a.872.872,0,0,1-.108-.321m1.829-1.593a1.7,1.7,0,0,1-.319.256c-.039.016-.126-.089-.19-.138a3.033,3.033,0,0,1,.28-.3,1.507,1.507,0,0,1,.229.186M481.285,475.1c.057.126.1.256.183.476-.374-.073-.433-.209-.339-.413.02-.039.153-.066.156-.062m.314,1.883c.08.048.128.149.224.277-.137.048-.241.117-.279.087a.377.377,0,0,1-.128-.247c-.005-.034.151-.137.183-.117M254.652,516.94c0,.048.005.1.009.146-.135.012-.27.025-.4.039,0-.062,0-.122,0-.185Zm221.215-24.987a.982.982,0,0,1,.06.277.707.707,0,0,1-.1.225c-.064-.05-.154-.087-.181-.153s.025-.147.043-.224c.059-.043.119-.083.179-.126M315.31,504.461c.06-.076.108-.177.186-.22.039-.018.131.075.254.151-.117.1-.181.192-.264.213-.043.012-.117-.09-.176-.144M232.9,483.488c-.037-.032-.075-.062-.11-.094.092-.142.186-.282.279-.422l.089.055c-.085.153-.172.307-.257.461m-12.893-.726a3.508,3.508,0,0,1,.174.323c-.051.03-.1.06-.154.089l-.179-.332a1.125,1.125,0,0,1,.16-.08M440.92,466.2a2.9,2.9,0,0,1,.147-.323c.053.032.106.06.161.092-.057.112-.112.225-.169.337-.05-.036-.146-.089-.14-.106M239.265,499.78c0-.06-.005-.119-.009-.176l.472-.034c-.137.369-.293.319-.463.209m202.762-50.767a.684.684,0,0,1-.2-.1c.041-.046.08-.124.124-.128a.894.894,0,0,1,.275.089c-.108.082-.158.149-.2.142m13.067-5.517c-.052.007-.112-.057-.169-.089.044-.067.078-.17.138-.192s.138.046.3.114c-.145.092-.206.156-.273.167M220.842,485.652a.688.688,0,0,1-.193-.128c.043-.06.083-.121.16-.231a.974.974,0,0,1,.144.238c.005.034-.083.13-.11.121M454.35,441.261a.86.86,0,0,1,.181-.144c.025-.011.083.064.167.138-.1.066-.161.13-.231.14-.03.007-.078-.085-.117-.135m1.27-.2a.828.828,0,0,1-.174-.161c.043-.041.087-.082.161-.151l.151.209c-.048.037-.114.115-.138.1m-61.442,36.329c.124.146.323.344.3.476s-.277.245-.438.348a1.772,1.772,0,0,1-.335.137c.106.2.186.348.254.474-.034.264-.334.431-.522.293a.817.817,0,0,1-.346-.415c-.078-.442-.568-.8-.243-1.336.064-.1-.021-.305-.039-.49.4-.115.754-.273,1.017.213.071.128.255.185.357.3m.318-1.467a2.587,2.587,0,0,1,.247.767c.011.046-.167.2-.227.183-.151-.043-.357-.122-.41-.247a4.268,4.268,0,0,1-.138-.9c.243.083.467.089.529.2m-4.214,5.387c.13.158.243.293.373.451-.176.2-.291.468-.587.346a.509.509,0,0,1-.287-.319c-.048-.323.183-.424.5-.477m1.375-.08a3.479,3.479,0,0,1-.578.2c-.222.025-.406-.064-.385-.342.018-.243.138-.515.385-.451.181.044.314.307.578.594m4.693-5.659c.2.229.394.355.412.5.011.112-.232.367-.319.349a.692.692,0,0,1-.4-.364c-.034-.073.154-.254.309-.49m-6.317,5.5c-.289.381-.515.064-.756.062l-.053-.14.5-.506c.151.28.231.433.312.584m2.434-3.409c-.2.158-.366.126-.463-.114a.236.236,0,0,1,.1-.2c.252-.083.357.05.358.314m-.912,1.377.516.087c-.247.355-.4.289-.55.121.012-.069.023-.138.034-.208m1.024-.845a1.1,1.1,0,0,1-.16.323c-.092-.119-.193-.2-.179-.245a.862.862,0,0,1,.172-.247c.06.055.169.115.167.169m91.329-22.769c-.486-.289-.277-.69-.266-1.047a.841.841,0,0,0-.547-.933.862.862,0,0,0-.9.472,1.068,1.068,0,0,0-.1.472c-.012.66-.012,1.318-.005,1.977a2.2,2.2,0,0,0,.114.435c.578-.309.13-.868.381-1.2.282-.167.4.073.527.259a.871.871,0,0,0,1.02.348.722.722,0,0,0,.4-.415c.048-.142-.067-.342-.112-.532l-.5.167m-1.38-.63c-.025-.312-.188-.648.238-.752a.415.415,0,0,1,.343.227c.075.445-.275.442-.58.525" transform="translate(-217.777 -439.327)" fill="#1a1405"/>
</svg>
